<svg xmlns="http://www.w3.org/2000/svg" width="32" height="32" viewBox="0 0 24 24" fill="none" stroke="#2563eb" stroke-width="2" stroke-linecap="round" stroke-linejoin="round">
  <path d="M19 17h2c.6 0 1-.4 1-1v-3c0-.9-.7-1.7-1.5-1.9C18.7 10.6 16 10 16 10s-1.3-1.4-2.2-2.3c-.5-.4-1.1-.7-1.8-.7H5c-.6 0-1.1.4-1.4.9l-1.5 2.8C1.4 11.3 1 12.1 1 13v3c0 .6.4 1 1 1h2"/>
  <circle cx="7" cy="17" r="2"/>
  <circle cx="17" cy="17" r="2"/>
  <path d="M5 10V7a2 2 0 0 1 2-2h10a2 2 0 0 1 2 2v3"/>
  <path d="M5 10h14l1 3H4l1-3z"/>
</svg>